<svg xmlns="http://www.w3.org/2000/svg" version="1.1" xmlns:xlink="http://www.w3.org/1999/xlink" width="512" height="512" x="0" y="0" viewBox="0 0 620 620.002" style="enable-background:new 0 0 512 512" xml:space="preserve" class=""><g><path d="m392.61 3.871-.126-.125A12.337 12.337 0 0 0 383.496 0h-177.52c-34.468.016-62.41 27.953-62.417 62.422v26.094h-83.02c-34.469.007-62.41 27.945-62.418 62.418v367.898c.008 34.469 27.95 62.406 62.418 62.418h254.047c34.469-.012 62.406-27.95 62.418-62.418v-26.094h83.02c34.468-.008 62.406-27.949 62.417-62.418V138.7a12.886 12.886 0 0 0-3.62-8.868zm3.37 38.703 84.016 83.89h-46.562c-20.66-.058-37.395-16.796-37.454-37.452zm-81.394 513.711H60.539c-20.66-.062-37.394-16.797-37.453-37.453V150.934c.059-20.66 16.793-37.395 37.453-37.454h91.133a13.15 13.15 0 0 0 8.738 0h65.293v64.04c.008 34.472 27.945 62.41 62.418 62.421h64.04v278.891c-.118 20.684-16.895 37.398-37.575 37.453zm20.098-341.312H288.12c-20.66-.059-37.394-16.79-37.453-37.453v-46.438zm125.34 252.797h-83.02V227.207a12.867 12.867 0 0 0-3.621-8.86L247.297 92.384l-.125-.125a12.331 12.331 0 0 0-8.984-3.742h-69.665V62.422c.059-20.66 16.793-37.39 37.454-37.453H371.14v64.043c.007 34.468 27.945 62.406 62.418 62.418h63.918v278.89c-.059 20.66-16.797 37.39-37.454 37.45zm0 0" fill="#000000" opacity="1" data-original="#000000"></path><path d="M73.77 315.723h126.46c6.899 0 12.485-5.594 12.485-12.485 0-6.898-5.586-12.484-12.485-12.484H73.77c-6.891 0-12.485 5.586-12.485 12.484 0 6.89 5.594 12.485 12.485 12.485zM301.352 379.262H73.77c-6.891 0-12.485 5.59-12.485 12.484 0 6.895 5.594 12.484 12.485 12.484h227.582c6.894 0 12.484-5.59 12.484-12.484s-5.59-12.484-12.484-12.484zM301.352 467.77H73.77c-6.891 0-12.485 5.593-12.485 12.484 0 6.894 5.594 12.484 12.485 12.484h227.582c6.894 0 12.484-5.59 12.484-12.484 0-6.89-5.59-12.484-12.484-12.484zM446.79 290.754h-38.08c-6.894 0-12.48 5.586-12.48 12.484 0 6.89 5.586 12.485 12.48 12.485h38.08c6.894 0 12.483-5.594 12.483-12.485 0-6.898-5.59-12.484-12.484-12.484zM446.79 379.262h-38.08c-6.894 0-12.48 5.59-12.48 12.484 0 6.895 5.586 12.484 12.48 12.484h38.08c6.894 0 12.483-5.59 12.483-12.484s-5.59-12.484-12.484-12.484zm0 0" fill="#000000" opacity="1" data-original="#000000"></path></g></svg>